# xmcd CD database file
#
# Track frame offsets:
#	150
#	11174
#	72801
#	85329
#	109237
#	119737
#	157256
#	206377
#	230235
#	242488
#	260014
#	287948
#	302302
#
# Disc length: 4348 seconds
#
# Revision: 0
# Processed by: cddbd v1.5.2PL0 Copyright (c) Steve Scherf et al.
# Submitted via: CDex 1.51
#
DISCID=be10fa0d
DTITLE=Wind Project of Schärding - Konzert September 2006
DYEAR=2006
DGENRE=Wind Band
TTITLE0=Philip Sparke - Victory Fanfare
TTITLE1=Heinrich Hübler - Konzertstück für 4 Hörner
TTITLE2=Albin Zaininger - Items I. It depends on
TTITLE3=Albin Zaininger - Items II. Piece between
TTITLE4=Albin Zaininger - Items III. Fasten seatbelts
TTITLE5=Philip Sparke - Pantomime
TTITLE6=Frank Ticheli - Blue Shades
TTITLE7=Frank Ticheli - Amazing Grace
TTITLE8=Franco Cesarini - Huckleberry Finn Suite I. A lazy Town
TTITLE9=Franco Cesarini - Huckleberry Finn Suite II. Jim
TTITLE10=Franco Cesarini - Huckleberry Finn Suite III. The King and the Duke
TTITLE11=H. L. Blankenburg - Abschied der Gladiatoren
TTITLE12=Gustav Mahler - Symphony No. 3. VI. Adagio
EXTD=YEAR: 2006
EXTT0=
EXTT1=
EXTT2=
EXTT3=
EXTT4=
EXTT5=
EXTT6=
EXTT7=
EXTT8=
EXTT9=
EXTT10=
EXTT11=
EXTT12=
PLAYORDER=
